{"title":"Bjork, hunter Later, Live With Jools Holland Dvd Rip [Divx-ENG]","uid":5499664,"size":45523979,"categoryP":"video","categoryS":"music_videos","magnet":"?xt=urn:btih:a872e700ca88dd93b77e2ffd2065ac39d15eb3ad&amp;dn=Bjork%2C+hunter+Later%2C+Live+With+Jools+Holland+Dvd+Rip+%5BDivx-ENG%5D&amp;tr=udp%3A%2F%2Ftracker.openbittorrent.com%3A80&amp;tr=udp%3A%2F%2Fopen.demonii.com%3A1337&amp;tr=udp%3A%2F%2Ftracker.coppersurfer.tk%3A6969&amp;tr=udp%3A%2F%2Fexodus.desync.com%3A6969","seeders":1,"leechers":0,"uploader":"seanprince","files":-1,"time":1271461894,"description":"BJORK 29/11/97\n\nSONG...Hunter\n\nFormat : AVI\nFormat/Info : Audio Video Interleave\nFile size : 43.4 MiB\nDuration : 4mn 3s\nOverall bit rate : 1 493 Kbps\n\nVideo\nFormat : MPEG-4 Visual\nFormat settings, BVOP : Yes\nFormat settings, QPel : No\nFormat settings, GMC : No warppoints\nFormat settings, Matrix : Default (H.263)\nMuxing mode : Packed bitstream\nCodec ID : DX50\nCodec ID/Hint : DivX 5\nDuration : 4mn 3s\nBit rate : 1 100 Kbps\nWidth : 672 pixels\nHeight : 384 pixels\nDisplay aspect ratio : 16/9\nFrame rate : 25.000 fps\nResolution : 24 bits\nColorimetry : 4:2:0\nScan type : Progressive\nBits/(Pixel*Frame) : 0.171\nStream size : 32.0 MiB (74%)\nTitle : Video\nWriting library : DivX 6.8.2 (UTC 2008-05-17)\n\nAudio\nFormat : AC-3\nFormat/Info : Audio Coding 3\nCodec ID : 2000\nDuration : 4mn 3s\nBit rate mode : Constant\nBit rate : 384 Kbps\nChannel(s) : 2 channels\nChannel positions : L R\nSampling rate : 48.0 KHz\nStream size : 11.2 MiB (26%)\nAlignment : Split accross interleaves\nInterleave, duration : 40 ms (1.00 video frame)\nInterleave, preload duration : 500 ms\nTitle : Audio","torrent":{"xt":"urn:btih:a872e700ca88dd93b77e2ffd2065ac39d15eb3ad","amp;dn":"Bjork%2C+hunter+Later%2C+Live+With+Jools+Holland+Dvd+Rip+%5BDivx-ENG%5D","amp;tr":["udp%3A%2F%2Ftracker.openbittorrent.com%3A80","udp%3A%2F%2Fopen.demonii.com%3A1337","udp%3A%2F%2Ftracker.coppersurfer.tk%3A6969","udp%3A%2F%2Fexodus.desync.com%3A6969"],"infoHash":"a872e700ca88dd93b77e2ffd2065ac39d15eb3ad","infoHashBuffer":{"type":"Buffer","data":[168,114,231,0,202,136,221,147,183,126,47,253,32,101,172,57,209,94,179,173]},"announce":[],"urlList":[]}}